<?xml version="1.0" encoding="UTF-8"?>
<svg width="1200pt" height="1200pt" version="1.1" viewBox="0 0 1200 1200" xmlns="http://www.w3.org/2000/svg">
 <path d="m1176.4 660.89c-4.3086-5.9609-49.039-66.961-122.16-136.72l95.801-95.84c17.387-17.332 17.387-45.48 0-62.773-17.293-17.375-45.441-17.375-62.785 0l-99.867 99.852c-34.895-28.148-73.652-55.691-115.8-79.707l64.387-106.38c12.68-21 5.9883-48.309-15.012-61.012-20.988-12.734-48.309-5.9609-60.988 15l-68.508 113.25c-39.719-16.215-81.547-28.387-124.96-34.734v-128.13c0-24.52-19.879-44.441-44.441-44.441-24.52 0-44.398 19.922-44.398 44.441v123.81c-59.359 2.9336-116.11 17.441-169.16 39.066l-68.492-113.21c-12.668-20.988-40-27.785-61-15.027-20.973 12.707-27.691 40-15 61.012l64.387 106.38c-42.094 24-80.906 51.559-115.8 79.734l-99.895-99.895c-17.332-17.375-45.48-17.375-62.812 0-17.332 17.293-17.332 45.453 0 62.773l95.879 95.84c-73.148 69.746-117.87 130.76-122.19 136.72-9.8281 13.641-9.8281 32.012 0 45.691 10.484 14.461 259.27 354.14 576.43 354.14 317.17 0 565.93-339.68 576.4-354.15 9.8281-13.664 9.8281-32.039-0.011719-45.691zm-576.39 287.49c-145.89 0-264.62-118.71-264.62-264.68 0-145.93 118.72-264.65 264.62-264.65 145.95 0 264.68 118.72 264.68 264.65 0 145.97-118.75 264.68-264.68 264.68zm-495.19-264.68c37.293-45.84 130.07-150.75 251.13-223.19-53.945 58.973-87.199 137.17-87.199 223.19 0 86.078 33.238 164.27 87.227 223.25-121.04-72.453-213.85-177.35-251.16-223.25zm738.81 223.71c54.199-59.012 87.613-137.43 87.613-223.69 0-86.012-33.238-164.2-87.188-223.19 121.08 72.508 213.87 177.41 251.15 223.25-37.266 45.93-130.14 151.14-251.57 223.62z"/>
 <path d="m600.01 530.67c-10.812 0-21.309 1.1055-31.453 3.2812 22.254 14.574 37.012 39.625 37.012 68.188 0 45.094-36.52 81.586-81.586 81.586-30.691 0-57.094-17.094-71.012-42.133-3.8398 13.398-6.0273 27.52-6.0273 42.133 0 84.535 68.535 153.04 153.07 153.04 84.492 0 153.04-68.508 153.04-153.04 0.003907-84.523-68.531-153.05-153.04-153.05z"/>
</svg>
