<?xml version="1.0" encoding="UTF-8"?>
<svg width="1200pt" height="1200pt" version="1.1" viewBox="0 0 1200 1200" xmlns="http://www.w3.org/2000/svg">
 <path d="m524.46 918.35s56.254-230.36 2.9531-398.52c-53.328-168.12-155.43-285.77-228.05-262.72-72.629 23.023-88.312 177.99-34.973 346.12 53.301 168.15 197.68 342.53 197.68 342.53z"/>
 <path d="m953.46 516.47c-24.566-82.34-187.83-111.79-187.83-111.79-74.527-15.852-132.8-38.781-169.49 133.75-36.656 172.54-5.9609 382.31-5.9609 382.31l72.473 25.027s76.09-76.598 106.46-121.83c-10.992-10.258-20.145-21.973-28.098-34.203-19.266-30.352-32.316-63.641-41.805-97.547-9.4844-33.969-15.59-68.668-19.207-103.52-3.6758-34.844-4.5508-69.91-2.4531-104.78 0.070312 34.879 3.0195 69.711 8.0234 104.09 5.1211 34.371 12.707 68.359 23.496 101.2 10.957 32.688 25.133 65.184 42.469 94.395 11.312 19.086 18.516 27.023 33.508 38.957 15.496 12.352 31.312 18.852 44.23 18.922 76.141-3.25 174.62-155.97 124.18-324.98z"/>
</svg>
